<?xml version="1.0" encoding="UTF-8" standalone="no"?>
<svg
   xmlns:dc="http://purl.org/dc/elements/1.1/"
   xmlns:cc="http://creativecommons.org/ns#"
   xmlns:rdf="http://www.w3.org/1999/02/22-rdf-syntax-ns#"
   xmlns:svg="http://www.w3.org/2000/svg"
   xmlns="http://www.w3.org/2000/svg"
   xmlns:sodipodi="http://sodipodi.sourceforge.net/DTD/sodipodi-0.dtd"
   xmlns:inkscape="http://www.inkscape.org/namespaces/inkscape"
   width="512px"
   height="512px"
   viewBox="0 0 512 512"
   version="1.1"
   id="svg22"
   sodipodi:docname="tile.svg"
   inkscape:version="0.92.5 (2060ec1f9f, 2020-04-08)">
  <metadata
     id="metadata28">
    <rdf:RDF>
      <cc:Work
         rdf:about="">
        <dc:format>image/svg+xml</dc:format>
        <dc:type
           rdf:resource="http://purl.org/dc/dcmitype/StillImage" />
      </cc:Work>
    </rdf:RDF>
  </metadata>
  <defs
     id="defs26" />
  <sodipodi:namedview
     pagecolor="#ffffff"
     bordercolor="#666666"
     borderopacity="1"
     objecttolerance="10"
     gridtolerance="10"
     guidetolerance="10"
     inkscape:pageopacity="0"
     inkscape:pageshadow="2"
     inkscape:window-width="2256"
     inkscape:window-height="1348"
     id="namedview24"
     showgrid="false"
     inkscape:zoom="2.09375"
     inkscape:cx="246.68657"
     inkscape:cy="256"
     inkscape:window-x="0"
     inkscape:window-y="0"
     inkscape:window-maximized="1"
     inkscape:current-layer="svg22" />
  <g
     id="g35"
     style="opacity:0.7"
     transform="matrix(0.61423651,0,0,0.60734788,98.755453,100.51894)">
    <path
       id="path12"
       d="M 256,464 C 141.31,464 48,370.69 48,256 48,141.31 141.31,48 256,48 c 114.69,0 208,93.31 208,208 0,114.69 -93.31,208 -208,208 z m 0,-384 c -97,0 -176,79 -176,176 0,97 79,176 176,176 97,0 176,-78.95 176,-176 C 432,158.95 353.05,80 256,80 Z"
       inkscape:connector-curvature="0"
       style="fill:#ffffff" />
    <path
       id="path14"
       d="m 323.67,292 c -17.4,0 -34.21,-7.72 -47.34,-21.73 a 83.76,83.76 0 0 1 -22,-51.32 c -1.47,-20.7 4.88,-39.75 17.88,-53.62 13,-13.87 31.17,-21.33 51.46,-21.33 20.14,0 38.37,7.62 51.33,21.46 12.96,13.84 19.47,33 18,53.51 v 0 a 84,84 0 0 1 -22,51.3 C 357.86,284.28 341.06,292 323.67,292 Z m 55.81,-74 z"
       inkscape:connector-curvature="0"
       style="fill:#ffffff" />
    <path
       id="path16"
       d="m 163.82,295.36 c -29.76,0 -55.93,-27.51 -58.33,-61.33 -1.23,-17.32 4.15,-33.33 15.17,-45.08 11.02,-11.75 26.22,-18 43.15,-18 16.93,0 32.12,6.44 43.07,18.14 10.95,11.7 16.5,27.82 15.25,45 -2.44,33.77 -28.6,61.27 -58.31,61.27 z"
       inkscape:connector-curvature="0"
       style="fill:#ffffff" />
    <path
       id="path18"
       d="m 420.37,355.28 c -1.59,-4.7 -5.46,-9.71 -13.22,-14.46 -23.46,-14.33 -52.32,-21.91 -83.48,-21.91 -30.57,0 -60.23,7.9 -83.53,22.25 -26.25,16.17 -43.89,39.75 -51,68.18 -1.68,6.69 -4.13,19.14 -1.51,26.11 a 192.18,192.18 0 0 0 232.75,-80.17 z"
       inkscape:connector-curvature="0"
       style="fill:#ffffff" />
    <path
       style="display:inline;fill:#ffffff"
       inkscape:connector-curvature="0"
       id="path20"
       d="m 163.63,401.37 c 7.07,-28.21 22.12,-51.73 45.47,-70.75 a 8,8 0 0 0 -2.59,-13.77 c -12,-3.83 -25.7,-5.88 -42.69,-5.88 -23.82,0 -49.11,6.45 -68.14,18.17 -5.4,3.33 -10.7,4.61 -14.78,5.75 a 192.84,192.84 0 0 0 77.78,86.64 l 1.79,-0.14 a 102.82,102.82 0 0 1 3.16,-20.02 z" />
  </g>
</svg>
